<svg width="91" height="44" viewBox="0 0 91 44" fill="none" xmlns="http://www.w3.org/2000/svg">
<path d="M15.8283 20.7834C17.6824 20.7834 19.1896 19.2908 19.1896 17.4547C19.1896 15.6185 17.6824 14.1259 15.8283 14.1259C13.9742 14.1259 12.467 15.6185 12.467 17.4547C12.467 19.2908 13.9742 20.7834 15.8283 20.7834Z" fill="#0FBD71"/>
<path d="M37.8389 0H6.60319C2.9575 0 0 2.92883 0 6.53917V37.4608C0 41.0712 2.9575 44 6.60319 44H37.8389C41.4846 44 44.4421 41.0712 44.4421 37.4608V6.53917C44.4421 2.92883 41.4903 0 37.8389 0ZM24.2856 11.873C24.2856 11.3605 24.7065 10.9437 25.2241 10.9437H26.7654C27.2829 10.9437 27.7038 11.3605 27.7038 11.873V15.6692C29.575 15.2017 31.031 13.6303 31.3381 11.7153C31.4121 11.2704 31.8045 10.9493 32.2595 10.9493H33.8179C34.3923 10.9493 34.8246 11.4506 34.7506 12.0138C34.489 14.0246 33.3288 16.0804 31.9069 17.3251L35.2966 22.9068C35.5583 23.3405 35.2454 23.8925 34.7336 23.8925H32.2652C32.032 23.8925 31.8216 23.7742 31.7021 23.5771L28.7731 18.7727C28.3977 18.8628 28.0394 18.936 27.7095 18.9979V22.9744C27.7095 23.4869 27.2886 23.9037 26.7711 23.9037H25.2298C24.7122 23.9037 24.2913 23.4869 24.2913 22.9744V11.873H24.2856ZM15.8283 10.8198C19.5252 10.8198 22.5282 13.7993 22.5282 17.4547C22.5282 21.1157 19.5195 24.0896 15.8283 24.0896C12.1314 24.0896 9.12844 21.1101 9.12844 17.4547C9.12844 13.7993 12.1371 10.8198 15.8283 10.8198ZM38.2371 29.1418C33.9316 33.2478 28.2555 35.5064 22.2609 35.5064C16.2663 35.5064 10.5901 33.2478 6.28469 29.1418C6.06288 28.9278 5.93775 28.6406 5.93775 28.3308C5.93775 28.021 6.06288 27.7394 6.29038 27.5253L7.11506 26.7481C7.54731 26.3425 8.22981 26.3425 8.66206 26.7537C12.3305 30.2345 17.1592 32.1495 22.2609 32.1495C27.3626 32.1495 32.1912 30.2345 35.8597 26.7537C36.2919 26.3425 36.9744 26.3425 37.4067 26.7481L38.2314 27.5253C38.4589 27.7394 38.584 28.021 38.584 28.3308C38.584 28.6406 38.4589 28.9278 38.2371 29.1418Z" fill="#0FBD71"/>
<path d="M54.9981 19.8372C54.2986 19.4485 53.7412 18.9078 53.3317 18.2151C52.9222 17.5223 52.7118 16.7394 52.7118 15.8776C52.7118 15.0102 52.9165 14.233 53.3317 13.5458C53.7412 12.8587 54.2986 12.318 54.9981 11.9293C55.6977 11.5407 56.4712 11.3492 57.3073 11.3492C58.149 11.3492 58.9168 11.5407 59.6164 11.9293C60.3159 12.318 60.8676 12.8531 61.2714 13.5458C61.6753 14.233 61.8743 15.0159 61.8743 15.8776C61.8743 16.745 61.6696 17.5223 61.2601 18.2151C60.8506 18.9078 60.2989 19.4485 59.605 19.8372C58.9111 20.2258 58.1376 20.4173 57.3016 20.4173C56.4712 20.4173 55.6977 20.2202 54.9981 19.8372ZM59.0249 17.7419C59.4514 17.2688 59.6676 16.6493 59.6676 15.8776C59.6676 15.0947 59.4514 14.4695 59.0249 14.0021C58.5983 13.5346 58.0239 13.3036 57.3129 13.3036C56.5906 13.3036 56.0162 13.5346 55.5896 13.9964C55.1631 14.4583 54.9469 15.0835 54.9469 15.8776C54.9469 16.6605 55.1631 17.2857 55.5896 17.7532C56.0162 18.2207 56.5963 18.4516 57.3129 18.4516C58.0239 18.446 58.5926 18.2094 59.0249 17.7419Z" fill="#0FBD71"/>
<path d="M68.2784 20.3272L65.2697 16.4183V20.3272H63.0914V11.4731H65.2697V15.3594L68.25 11.4731H70.8094L67.3457 15.81L70.9402 20.3272H68.2784Z" fill="#0FBD71"/>
<path d="M81.1037 11.4731V13.2022H78.732V20.3272H76.5537V13.2022H74.1877V11.4731H81.1037Z" fill="#0FBD71"/>
<path d="M84.1181 19.8372C83.4186 19.4485 82.8612 18.9078 82.4517 18.2151C82.0422 17.5223 81.8318 16.7394 81.8318 15.8776C81.8318 15.0102 82.0365 14.233 82.4517 13.5458C82.8612 12.8587 83.4186 12.318 84.1181 11.9293C84.8177 11.5407 85.5912 11.3492 86.4273 11.3492C87.269 11.3492 88.0368 11.5407 88.7364 11.9293C89.4359 12.318 89.9876 12.8531 90.3914 13.5458C90.7952 14.233 90.9943 15.0159 90.9943 15.8776C90.9943 16.745 90.7896 17.5223 90.3857 18.2151C89.9762 18.9078 89.4246 19.4485 88.7307 19.8372C88.0368 20.2258 87.2633 20.4173 86.4273 20.4173C85.5855 20.4173 84.8177 20.2202 84.1181 19.8372ZM88.1392 17.7419C88.5657 17.2688 88.7819 16.6493 88.7819 15.8776C88.7819 15.0947 88.5657 14.4695 88.1392 14.0021C87.7126 13.5346 87.1382 13.3036 86.4273 13.3036C85.7049 13.3036 85.1305 13.5346 84.7039 13.9964C84.2774 14.4583 84.0613 15.0835 84.0613 15.8776C84.0613 16.6605 84.2774 17.2857 84.7039 17.7532C85.1305 18.2207 85.7106 18.4516 86.4273 18.4516C87.1382 18.446 87.7126 18.2094 88.1392 17.7419Z" fill="#0FBD71"/>
<path d="M54.5602 31.8848C54.0426 31.6764 53.6274 31.3666 53.3203 30.9498C53.0132 30.5387 52.8482 30.043 52.8312 29.4629H55.1517C55.1858 29.7895 55.2996 30.043 55.4929 30.212C55.6863 30.3866 55.9422 30.4711 56.2551 30.4711C56.5792 30.4711 56.8295 30.3978 57.0172 30.2514C57.2049 30.105 57.2959 29.9022 57.2959 29.6375C57.2959 29.4178 57.2219 29.2376 57.0741 29.0968C56.9262 28.956 56.7442 28.8377 56.5281 28.7419C56.3119 28.6518 56.0048 28.5448 55.6067 28.4265C55.0266 28.2519 54.5602 28.0717 54.1905 27.8971C53.8265 27.7225 53.5137 27.4577 53.2464 27.1142C52.9847 26.7706 52.8539 26.32 52.8539 25.7624C52.8539 24.9401 53.1554 24.2924 53.7582 23.8249C54.3611 23.3574 55.146 23.1265 56.1129 23.1265C57.0968 23.1265 57.8931 23.3574 58.4959 23.8249C59.0988 24.2924 59.423 24.9401 59.4628 25.7737H57.1082C57.0911 25.4864 56.9831 25.2611 56.7897 25.0978C56.5963 24.9345 56.3461 24.85 56.0389 24.85C55.7773 24.85 55.5612 24.9176 55.4019 25.0584C55.2427 25.1992 55.1574 25.3963 55.1574 25.6554C55.1574 25.9426 55.2939 26.1623 55.5669 26.3256C55.8399 26.4834 56.2607 26.658 56.8409 26.8438C57.421 27.0353 57.8874 27.2212 58.2457 27.4014C58.604 27.576 58.9168 27.8351 59.1841 28.1731C59.4457 28.511 59.5766 28.9447 59.5766 29.4741C59.5766 29.981 59.4457 30.4373 59.1898 30.8484C58.9282 31.2596 58.5528 31.5863 58.0637 31.8341C57.5746 32.0819 56.9887 32.2002 56.3176 32.2002C55.6636 32.2002 55.0777 32.0988 54.5602 31.8848Z" fill="#0FBD71"/>
<path d="M68.6595 23.256V32.1157H66.4812V28.4659H63.0914V32.1157H60.9131V23.256H63.0914V26.7255H66.4812V23.256H68.6595Z" fill="#0FBD71"/>
<path d="M72.1403 31.6201C71.4407 31.2314 70.8833 30.6907 70.4738 29.998C70.0643 29.3052 69.8539 28.5223 69.8539 27.6605C69.8539 26.7931 70.0586 26.0159 70.4738 25.3287C70.8833 24.6416 71.4407 24.1009 72.1403 23.7122C72.8398 23.3236 73.6133 23.1321 74.4494 23.1321C75.2911 23.1321 76.0589 23.3236 76.7585 23.7122C77.4581 24.1009 78.0097 24.636 78.4136 25.3287C78.8174 26.0159 79.0164 26.7988 79.0164 27.6605C79.0164 28.5279 78.8117 29.3052 78.4022 29.998C77.9927 30.6907 77.441 31.2314 76.7471 31.6201C76.0533 32.0087 75.2798 32.2002 74.4437 32.2002C73.6133 32.2002 72.8455 32.0087 72.1403 31.6201ZM76.167 29.5305C76.5936 29.0574 76.8097 28.4378 76.8097 27.6662C76.8097 26.8833 76.5936 26.2581 76.167 25.7906C75.7404 25.3231 75.166 25.0922 74.4551 25.0922C73.7328 25.0922 73.1583 25.3231 72.7318 25.785C72.3052 26.2468 72.0891 26.872 72.0891 27.6662C72.0891 28.4491 72.3052 29.0743 72.7318 29.5417C73.1583 30.0092 73.7384 30.2401 74.4551 30.2401C75.166 30.2345 75.7404 29.998 76.167 29.5305Z" fill="#0FBD71"/>
<path d="M86.6946 27.5141C86.4557 27.9365 86.0917 28.2801 85.5969 28.5448C85.1021 28.8039 84.4935 28.9334 83.7655 28.9334H82.4176V32.1101H80.2393V23.256H83.7655C84.4764 23.256 85.0793 23.3799 85.5741 23.6221C86.0689 23.8643 86.4386 24.2022 86.6832 24.6303C86.9278 25.0584 87.0529 25.5484 87.0529 26.106C87.0529 26.6242 86.9334 27.0916 86.6946 27.5141ZM84.5276 26.9283C84.7324 26.7368 84.8348 26.4608 84.8348 26.106C84.8348 25.7511 84.7324 25.4808 84.5276 25.2837C84.3229 25.0922 84.0158 24.9964 83.6006 24.9964H82.4176V27.2156H83.6006C84.0158 27.2212 84.3286 27.1254 84.5276 26.9283Z" fill="#0FBD71"/>
</svg>
